<?xml version="1.0" encoding="UTF-8"?>
<svg xmlns="http://www.w3.org/2000/svg" viewBox="0 0 32 32">
  <path d="M23.05,13.06h0l-8,8c-.59.59-1.54.59-2.12,0l-4-4c-.59-.59-.59-1.54,0-2.12.59-.58,1.54-.58,2.12,0l2.94,2.94,6.94-6.94c.58-.59,1.53-.59,2.11,0,.59.58.59,1.53,0,2.12Z" fill="#fff"/>
  <path d="M28.66,16l2.89-2.81c.39-.38.54-.94.4-1.47-.15-.52-.56-.93-1.08-1.06l-3.91-.99,1.09-3.88c.15-.52,0-1.08-.38-1.47-.38-.38-.94-.53-1.47-.38l-3.87,1.1-.99-3.91c-.14-.52-.55-.94-1.07-1.08-.53-.14-1.08.01-1.46.41l-2.81,2.88L13.19.46c-.38-.4-.94-.55-1.47-.41-.52.14-.93.56-1.07,1.08l-.98,3.91-3.88-1.1c-.52-.15-1.09,0-1.47.38-.38.39-.53.95-.38,1.47l1.1,3.88-3.91.99c-.53.13-.94.55-1.08,1.07-.15.53,0,1.08.4,1.46l2.89,2.81-2.89,2.81c-.39.38-.54.94-.4,1.46.14.53.55.94,1.08,1.07l3.91.99-1.1,3.88c-.15.52,0,1.08.38,1.46.38.39.95.54,1.47.39l3.88-1.1.98,3.91c.14.52.55.94,1.07,1.08.53.14,1.08-.01,1.47-.4l2.81-2.89,2.81,2.89c.38.39.94.54,1.46.4.53-.14.93-.56,1.07-1.08l.99-3.91,3.87,1.1c.53.15,1.09,0,1.47-.39.38-.38.53-.94.38-1.46l-1.09-3.88,3.91-.99c.52-.13.93-.54,1.08-1.07.14-.52-.01-1.08-.4-1.46l-2.89-2.81ZM23.06,13.06l-8,8c-.59.59-1.54.59-2.12,0l-4-4c-.59-.59-.59-1.54,0-2.12.59-.58,1.54-.58,2.12,0l2.94,2.94,6.94-6.94c.58-.59,1.53-.59,2.11,0,.59.58.59,1.53,0,2.12h0Z" fill="#263240"/>
</svg>
