<?xml version="1.0" encoding="UTF-8"?>
<svg xmlns="http://www.w3.org/2000/svg" viewBox="0 0 32 32">
  <path d="M28.66,16l2.89-2.81c.39-.38.54-.94.4-1.46-.14-.53-.56-.93-1.08-1.07l-3.91-.99,1.09-3.88c.15-.53,0-1.09-.38-1.47-.38-.38-.94-.53-1.47-.38l-3.88,1.09-.99-3.91c-.13-.53-.54-.94-1.07-1.08-.53-.14-1.08.01-1.46.41l-2.81,2.89L13.19.46c-.38-.39-.94-.54-1.46-.41-.53.14-.93.56-1.07,1.08l-.99,3.91-3.88-1.09c-.52-.15-1.09,0-1.47.38-.38.38-.53.94-.38,1.47l1.09,3.88-3.91.99c-.53.13-.94.54-1.08,1.07-.14.53.01,1.08.41,1.46l2.89,2.81-2.89,2.81c-.39.38-.54.94-.41,1.46.14.52.56.93,1.08,1.07l3.91.99-1.09,3.88c-.15.53,0,1.09.38,1.47s.94.53,1.47.38l3.88-1.09.99,3.91c.13.52.54.94,1.07,1.08.52.14,1.08-.01,1.46-.4l2.81-2.89,2.81,2.89c.38.39.94.54,1.46.4s.93-.56,1.07-1.08l.99-3.91,3.88,1.09c.52.15,1.09,0,1.47-.38s.53-.94.38-1.47l-1.09-3.88,3.91-.99c.53-.13.94-.54,1.08-1.07.14-.53-.01-1.09-.4-1.46l-2.89-2.81ZM23.06,13.06l-8,8c-.59.59-1.54.59-2.12,0l-4-4c-.59-.59-.59-1.54,0-2.12.59-.58,1.54-.59,2.12,0l2.94,2.94,6.94-6.94c.59-.59,1.54-.59,2.12,0,.58.59.59,1.54,0,2.12h0Z"/>
</svg>
